<?xml version="1.0" encoding="UTF-8" standalone="no"?>
<!DOCTYPE svg PUBLIC "-//W3C//DTD SVG 1.1//EN"
 "http://www.w3.org/Graphics/SVG/1.1/DTD/svg11.dtd">
<!-- Generated by graphviz version 2.38.0 (20140413.2041)
 -->
<!-- Title: G Pages: 1 -->
<svg width="517pt" height="819pt"
 viewBox="0.00 0.00 517.30 819.00" xmlns="http://www.w3.org/2000/svg" xmlns:xlink="http://www.w3.org/1999/xlink">
<g id="graph0" class="graph" transform="scale(1 1) rotate(0) translate(4 815)">
<title>G</title>
<polygon fill="white" stroke="none" points="-4,4 -4,-815 513.298,-815 513.298,4 -4,4"/>
<g id="clust1" class="cluster"><title>cluster_Global</title>
<path fill="none" stroke="gray" d="M389.907,-8C389.907,-8 489.298,-8 489.298,-8 495.298,-8 501.298,-14 501.298,-20 501.298,-20 501.298,-791 501.298,-791 501.298,-797 495.298,-803 489.298,-803 489.298,-803 389.907,-803 389.907,-803 383.907,-803 377.907,-797 377.907,-791 377.907,-791 377.907,-20 377.907,-20 377.907,-14 383.907,-8 389.907,-8"/>
<text text-anchor="middle" x="439.602" y="-789.1" font-family="Times,serif" font-size="11.00" fill="gray">Global</text>
</g>
<g id="clust2" class="cluster"><title>cluster_\Alvo16</title>
<path fill="none" stroke="gray" d="M397.907,-16C397.907,-16 481.298,-16 481.298,-16 487.298,-16 493.298,-22 493.298,-28 493.298,-28 493.298,-762 493.298,-762 493.298,-768 487.298,-774 481.298,-774 481.298,-774 397.907,-774 397.907,-774 391.907,-774 385.907,-768 385.907,-762 385.907,-762 385.907,-28 385.907,-28 385.907,-22 391.907,-16 397.907,-16"/>
<text text-anchor="middle" x="439.602" y="-760.1" font-family="Times,serif" font-size="11.00" fill="gray">Alvo16</text>
</g>
<g id="clust3" class="cluster"><title>cluster_\Alvo16\App</title>
<path fill="none" stroke="gray" d="M416.602,-672C416.602,-672 462.602,-672 462.602,-672 468.602,-672 474.602,-678 474.602,-684 474.602,-684 474.602,-733 474.602,-733 474.602,-739 468.602,-745 462.602,-745 462.602,-745 416.602,-745 416.602,-745 410.602,-745 404.602,-739 404.602,-733 404.602,-733 404.602,-684 404.602,-684 404.602,-678 410.602,-672 416.602,-672"/>
<text text-anchor="middle" x="439.602" y="-731.1" font-family="Times,serif" font-size="11.00" fill="gray">App</text>
</g>
<g id="clust4" class="cluster"><title>cluster_\Alvo16\Calendar</title>
<path fill="none" stroke="gray" d="M409.207,-591C409.207,-591 469.998,-591 469.998,-591 475.998,-591 481.998,-597 481.998,-603 481.998,-603 481.998,-652 481.998,-652 481.998,-658 475.998,-664 469.998,-664 469.998,-664 409.207,-664 409.207,-664 403.207,-664 397.207,-658 397.207,-652 397.207,-652 397.207,-603 397.207,-603 397.207,-597 403.207,-591 409.207,-591"/>
<text text-anchor="middle" x="439.602" y="-650.1" font-family="Times,serif" font-size="11.00" fill="gray">Calendar</text>
</g>
<g id="clust5" class="cluster"><title>cluster_\Alvo16\Content</title>
<path fill="none" stroke="gray" d="M412.506,-510C412.506,-510 466.699,-510 466.699,-510 472.699,-510 478.699,-516 478.699,-522 478.699,-522 478.699,-571 478.699,-571 478.699,-577 472.699,-583 466.699,-583 466.699,-583 412.506,-583 412.506,-583 406.506,-583 400.506,-577 400.506,-571 400.506,-571 400.506,-522 400.506,-522 400.506,-516 406.506,-510 412.506,-510"/>
<text text-anchor="middle" x="439.602" y="-569.1" font-family="Times,serif" font-size="11.00" fill="gray">Content</text>
</g>
<g id="clust6" class="cluster"><title>cluster_\Alvo16\Cookie</title>
<path fill="none" stroke="gray" d="M415.806,-429C415.806,-429 463.399,-429 463.399,-429 469.399,-429 475.399,-435 475.399,-441 475.399,-441 475.399,-490 475.399,-490 475.399,-496 469.399,-502 463.399,-502 463.399,-502 415.806,-502 415.806,-502 409.806,-502 403.806,-496 403.806,-490 403.806,-490 403.806,-441 403.806,-441 403.806,-435 409.806,-429 415.806,-429"/>
<text text-anchor="middle" x="439.602" y="-488.1" font-family="Times,serif" font-size="11.00" fill="gray">Cookie</text>
</g>
<g id="clust7" class="cluster"><title>cluster_\Alvo16\Dashboard</title>
<path fill="none" stroke="gray" d="M405.907,-348C405.907,-348 473.298,-348 473.298,-348 479.298,-348 485.298,-354 485.298,-360 485.298,-360 485.298,-409 485.298,-409 485.298,-415 479.298,-421 473.298,-421 473.298,-421 405.907,-421 405.907,-421 399.907,-421 393.907,-415 393.907,-409 393.907,-409 393.907,-360 393.907,-360 393.907,-354 399.907,-348 405.907,-348"/>
<text text-anchor="middle" x="439.602" y="-407.1" font-family="Times,serif" font-size="11.00" fill="gray">Dashboard</text>
</g>
<g id="clust8" class="cluster"><title>cluster_\Alvo16\Navbar</title>
<path fill="none" stroke="gray" d="M415.806,-267C415.806,-267 463.399,-267 463.399,-267 469.399,-267 475.399,-273 475.399,-279 475.399,-279 475.399,-328 475.399,-328 475.399,-334 469.399,-340 463.399,-340 463.399,-340 415.806,-340 415.806,-340 409.806,-340 403.806,-334 403.806,-328 403.806,-328 403.806,-279 403.806,-279 403.806,-273 409.806,-267 415.806,-267"/>
<text text-anchor="middle" x="439.602" y="-326.1" font-family="Times,serif" font-size="11.00" fill="gray">Navbar</text>
</g>
<g id="clust9" class="cluster"><title>cluster_\Alvo16\Session</title>
<path fill="none" stroke="gray" d="M412.506,-186C412.506,-186 466.699,-186 466.699,-186 472.699,-186 478.699,-192 478.699,-198 478.699,-198 478.699,-247 478.699,-247 478.699,-253 472.699,-259 466.699,-259 466.699,-259 412.506,-259 412.506,-259 406.506,-259 400.506,-253 400.506,-247 400.506,-247 400.506,-198 400.506,-198 400.506,-192 406.506,-186 412.506,-186"/>
<text text-anchor="middle" x="439.602" y="-245.1" font-family="Times,serif" font-size="11.00" fill="gray">Session</text>
</g>
<g id="clust10" class="cluster"><title>cluster_\Alvo16\Shop</title>
<path fill="none" stroke="gray" d="M416.602,-105C416.602,-105 462.602,-105 462.602,-105 468.602,-105 474.602,-111 474.602,-117 474.602,-117 474.602,-166 474.602,-166 474.602,-172 468.602,-178 462.602,-178 462.602,-178 416.602,-178 416.602,-178 410.602,-178 404.602,-172 404.602,-166 404.602,-166 404.602,-117 404.602,-117 404.602,-111 410.602,-105 416.602,-105"/>
<text text-anchor="middle" x="439.602" y="-164.1" font-family="Times,serif" font-size="11.00" fill="gray">Shop</text>
</g>
<g id="clust11" class="cluster"><title>cluster_\Alvo16\Users</title>
<path fill="none" stroke="gray" d="M416.602,-24C416.602,-24 462.602,-24 462.602,-24 468.602,-24 474.602,-30 474.602,-36 474.602,-36 474.602,-85 474.602,-85 474.602,-91 468.602,-97 462.602,-97 462.602,-97 416.602,-97 416.602,-97 410.602,-97 404.602,-91 404.602,-85 404.602,-85 404.602,-36 404.602,-36 404.602,-30 410.602,-24 416.602,-24"/>
<text text-anchor="middle" x="439.602" y="-83.1" font-family="Times,serif" font-size="11.00" fill="gray">Users</text>
</g>
<!-- \\Alvo16\\App\\App -->
<g id="node1" class="node"><title>\\Alvo16\\App\\App</title>
<polygon fill="none" stroke="black" points="466.602,-716 412.602,-716 412.602,-680 466.602,-680 466.602,-716"/>
<text text-anchor="middle" x="439.602" y="-694.7" font-family="Courier,monospace" font-size="11.00">App</text>
</g>
<!-- \\Alvo16\\Calendar\\Calendar -->
<g id="node2" class="node"><title>\\Alvo16\\Calendar\\Calendar</title>
<polygon fill="none" stroke="black" points="473.894,-635 405.311,-635 405.311,-599 473.894,-599 473.894,-635"/>
<text text-anchor="middle" x="439.602" y="-613.7" font-family="Courier,monospace" font-size="11.00">Calendar</text>
</g>
<!-- \\Anax\\Common\\AppInjectableInterface -->
<g id="node10" class="node"><title>\\Anax\\Common\\AppInjectableInterface</title>
<ellipse fill="none" stroke="black" cx="164.954" cy="-374" rx="164.907" ry="18"/>
<text text-anchor="middle" x="164.954" y="-369.8" font-family="Times,serif" font-size="14.00" fill="gray">\Anax\Common\AppInjectableInterface</text>
</g>
<!-- \\Alvo16\\Calendar\\Calendar&#45;&gt;\\Anax\\Common\\AppInjectableInterface -->
<g id="edge1" class="edge"><title>\\Alvo16\\Calendar\\Calendar&#45;&gt;\\Anax\\Common\\AppInjectableInterface</title>
<path fill="none" stroke="black" stroke-dasharray="1,5" d="M405.027,-602.845C395.879,-598.348 386.21,-592.971 377.907,-587 298.727,-530.058 222.158,-442.689 186.613,-399.701"/>
<polygon fill="none" stroke="black" points="189.312,-397.472 180.263,-391.962 183.901,-401.912 189.312,-397.472"/>
</g>
<!-- \\Alvo16\\Content\\Content -->
<g id="node3" class="node"><title>\\Alvo16\\Content\\Content</title>
<polygon fill="none" stroke="black" points="470.795,-554 408.41,-554 408.41,-518 470.795,-518 470.795,-554"/>
<text text-anchor="middle" x="439.602" y="-532.7" font-family="Courier,monospace" font-size="11.00">Content</text>
</g>
<!-- \\Alvo16\\Content\\Content&#45;&gt;\\Anax\\Common\\AppInjectableInterface -->
<g id="edge2" class="edge"><title>\\Alvo16\\Content\\Content&#45;&gt;\\Anax\\Common\\AppInjectableInterface</title>
<path fill="none" stroke="black" stroke-dasharray="1,5" d="M408.356,-521.773C398.537,-516.964 387.664,-511.432 377.907,-506 314.259,-470.562 242.841,-424.77 201.28,-397.488"/>
<polygon fill="none" stroke="black" points="203.155,-394.532 192.878,-391.957 199.306,-400.379 203.155,-394.532"/>
</g>
<!-- \\Alvo16\\Cookie\\Cookie -->
<g id="node4" class="node"><title>\\Alvo16\\Cookie\\Cookie</title>
<polygon fill="none" stroke="black" points="467.197,-473 412.008,-473 412.008,-437 467.197,-437 467.197,-473"/>
<text text-anchor="middle" x="439.602" y="-451.7" font-family="Courier,monospace" font-size="11.00">Cookie</text>
</g>
<!-- \\Alvo16\\Cookie\\Cookie&#45;&gt;\\Anax\\Common\\AppInjectableInterface -->
<g id="edge3" class="edge"><title>\\Alvo16\\Cookie\\Cookie&#45;&gt;\\Anax\\Common\\AppInjectableInterface</title>
<path fill="none" stroke="black" stroke-dasharray="1,5" d="M411.963,-447.086C370.733,-434.837 290.208,-410.914 232.51,-393.773"/>
<polygon fill="none" stroke="black" points="233.32,-390.362 222.737,-390.87 231.326,-397.073 233.32,-390.362"/>
</g>
<!-- \\Alvo16\\Dashboard\\Dashboard -->
<g id="node5" class="node"><title>\\Alvo16\\Dashboard\\Dashboard</title>
<polygon fill="none" stroke="black" points="477.494,-392 401.711,-392 401.711,-356 477.494,-356 477.494,-392"/>
<text text-anchor="middle" x="439.602" y="-370.7" font-family="Courier,monospace" font-size="11.00">Dashboard</text>
</g>
<!-- \\Alvo16\\Dashboard\\Dashboard&#45;&gt;\\Anax\\Common\\AppInjectableInterface -->
<g id="edge4" class="edge"><title>\\Alvo16\\Dashboard\\Dashboard&#45;&gt;\\Anax\\Common\\AppInjectableInterface</title>
<path fill="none" stroke="black" stroke-dasharray="1,5" d="M401.832,-374C384.789,-374 363.182,-374 339.995,-374"/>
<polygon fill="none" stroke="black" points="339.969,-370.5 329.969,-374 339.969,-377.5 339.969,-370.5"/>
</g>
<!-- \\Alvo16\\Navbar\\Navbar -->
<g id="node6" class="node"><title>\\Alvo16\\Navbar\\Navbar</title>
<polygon fill="none" stroke="black" points="467.197,-311 412.008,-311 412.008,-275 467.197,-275 467.197,-311"/>
<text text-anchor="middle" x="439.602" y="-289.7" font-family="Courier,monospace" font-size="11.00">Navbar</text>
</g>
<!-- \\Alvo16\\Navbar\\Navbar&#45;&gt;\\Anax\\Common\\AppInjectableInterface -->
<g id="edge5" class="edge"><title>\\Alvo16\\Navbar\\Navbar&#45;&gt;\\Anax\\Common\\AppInjectableInterface</title>
<path fill="none" stroke="black" stroke-dasharray="1,5" d="M411.963,-300.914C370.733,-313.163 290.208,-337.086 232.51,-354.227"/>
<polygon fill="none" stroke="black" points="231.326,-350.927 222.737,-357.13 233.32,-357.638 231.326,-350.927"/>
</g>
<!-- \\Anax\\Common\\ConfigureInterface -->
<g id="node11" class="node"><title>\\Anax\\Common\\ConfigureInterface</title>
<ellipse fill="none" stroke="black" cx="164.954" cy="-293" rx="149.32" ry="18"/>
<text text-anchor="middle" x="164.954" y="-288.8" font-family="Times,serif" font-size="14.00" fill="gray">\Anax\Common\ConfigureInterface</text>
</g>
<!-- \\Alvo16\\Navbar\\Navbar&#45;&gt;\\Anax\\Common\\ConfigureInterface -->
<g id="edge6" class="edge"><title>\\Alvo16\\Navbar\\Navbar&#45;&gt;\\Anax\\Common\\ConfigureInterface</title>
<path fill="none" stroke="black" stroke-dasharray="1,5" d="M411.963,-293C390.56,-293 358.567,-293 324.676,-293"/>
<polygon fill="none" stroke="black" points="324.592,-289.5 314.592,-293 324.592,-296.5 324.592,-289.5"/>
</g>
<!-- \\Alvo16\\Session\\Session -->
<g id="node7" class="node"><title>\\Alvo16\\Session\\Session</title>
<polygon fill="none" stroke="black" points="470.795,-230 408.41,-230 408.41,-194 470.795,-194 470.795,-230"/>
<text text-anchor="middle" x="439.602" y="-208.7" font-family="Courier,monospace" font-size="11.00">Session</text>
</g>
<!-- \\Alvo16\\Shop\\Shop -->
<g id="node8" class="node"><title>\\Alvo16\\Shop\\Shop</title>
<polygon fill="none" stroke="black" points="466.602,-149 412.602,-149 412.602,-113 466.602,-113 466.602,-149"/>
<text text-anchor="middle" x="439.602" y="-127.7" font-family="Courier,monospace" font-size="11.00">Shop</text>
</g>
<!-- \\Alvo16\\Shop\\Shop&#45;&gt;\\Anax\\Common\\AppInjectableInterface -->
<g id="edge7" class="edge"><title>\\Alvo16\\Shop\\Shop&#45;&gt;\\Anax\\Common\\AppInjectableInterface</title>
<path fill="none" stroke="black" stroke-dasharray="1,5" d="M412.434,-148.051C400.508,-156.948 387.045,-168.74 377.907,-182 341.061,-235.472 376.204,-274.464 329.907,-320 313.082,-336.549 291.094,-348.026 268.711,-355.986"/>
<polygon fill="none" stroke="black" points="267.488,-352.705 259.108,-359.187 269.701,-359.345 267.488,-352.705"/>
</g>
<!-- \\Alvo16\\Users\\Users -->
<g id="node9" class="node"><title>\\Alvo16\\Users\\Users</title>
<polygon fill="none" stroke="black" points="466.602,-68 412.602,-68 412.602,-32 466.602,-32 466.602,-68"/>
<text text-anchor="middle" x="439.602" y="-46.7" font-family="Courier,monospace" font-size="11.00">Users</text>
</g>
<!-- \\Alvo16\\Users\\Users&#45;&gt;\\Anax\\Common\\AppInjectableInterface -->
<g id="edge8" class="edge"><title>\\Alvo16\\Users\\Users&#45;&gt;\\Anax\\Common\\AppInjectableInterface</title>
<path fill="none" stroke="black" stroke-dasharray="1,5" d="M412.341,-66.1435C400.093,-74.9793 386.383,-86.9848 377.907,-101 326.346,-186.266 396.668,-246.027 329.907,-320 314.866,-336.667 294.588,-348.203 273.425,-356.185"/>
<polygon fill="none" stroke="black" points="272.262,-352.884 263.987,-359.5 274.582,-359.488 272.262,-352.884"/>
</g>
</g>
</svg>
